<?xml version="1.0" encoding="UTF-8"?>
<svg xmlns="http://www.w3.org/2000/svg" xmlns:xlink="http://www.w3.org/1999/xlink" width="16px" height="16px" viewBox="0 0 16 16" version="1.1">
<defs>
<filter id="alpha" filterUnits="objectBoundingBox" x="0%" y="0%" width="100%" height="100%">
  <feColorMatrix type="matrix" in="SourceGraphic" values="0 0 0 0 1 0 0 0 0 1 0 0 0 0 1 0 0 0 1 0"/>
</filter>
<mask id="mask0">
  <g filter="url(#alpha)">
<rect x="0" y="0" width="16" height="16" style="fill:rgb(0%,0%,0%);fill-opacity:0.5;stroke:none;"/>
  </g>
</mask>
<clipPath id="clip1">
  <rect x="0" y="0" width="16" height="16"/>
</clipPath>
<g id="surface5" clip-path="url(#clip1)">
<path style=" stroke:none;fill-rule:nonzero;fill:rgb(96.078432%,96.078432%,96.078432%);fill-opacity:1;" d="M 4 5.003906 L 4 9.003906 L 5.5 7.503906 L 7 9.003906 L 9.5 6.503906 L 12 9.003906 L 12 5.003906 Z M 4 5.003906 "/>
</g>
</defs>
<g id="surface1">
<path style=" stroke:none;fill-rule:nonzero;fill:rgb(96.078432%,96.078432%,96.078432%);fill-opacity:1;" d="M 4 2.003906 C 2.347656 2.011719 1.011719 3.347656 1 5 L 1 11.003906 C 1 12.652344 2.351562 14 4 14 L 12 14 C 13.652344 13.992188 14.988281 12.65625 15 11.003906 L 15 5 C 14.988281 3.351562 13.652344 2.015625 12 2.007812 Z M 4 4.007812 L 12 4.007812 C 12.570312 4.007812 13.003906 4.429688 13.003906 5 L 13.003906 11.003906 C 13.007812 11.269531 12.902344 11.527344 12.714844 11.714844 C 12.527344 11.902344 12.269531 12.007812 12 12 L 4 12 C 3.730469 12.007812 3.472656 11.90625 3.285156 11.714844 C 3.097656 11.527344 2.992188 11.269531 3 11.003906 L 3 5 C 3 4.433594 3.425781 4.007812 4 4.007812 Z M 4 4.007812 "/>
<use xlink:href="#surface5" mask="url(#mask0)"/>
<path style=" stroke:none;fill-rule:nonzero;fill:rgb(96.078432%,96.078432%,96.078432%);fill-opacity:1;" d="M 8 7.003906 L 12 11.003906 L 4 11.003906 Z M 8 7.003906 "/>
</g>
</svg>
