<?xml version="1.0" encoding="UTF-8"?>
<svg xmlns="http://www.w3.org/2000/svg" xmlns:xlink="http://www.w3.org/1999/xlink" width="16px" height="21px" viewBox="0 0 16 21" version="1.1">
<g id="surface1">
<path style=" stroke:none;fill-rule:nonzero;fill:rgb(53.725493%,53.725493%,53.725493%);fill-opacity:1;" d="M 2.003906 0.335938 L 13.996094 0.335938 C 15.101562 0.335938 16.082031 1.214844 15.996094 2.300781 L 14.660156 18.699219 C 11.332031 21.320312 4.667969 21.320312 1.339844 18.699219 L 0.00390625 2.300781 C -0.0820312 1.214844 0.898438 0.335938 2.003906 0.335938 Z M 2.003906 0.335938 "/>
<path style=" stroke:none;fill-rule:nonzero;fill:rgb(0%,0%,0%);fill-opacity:0.5;" d="M 2.003906 0.335938 C 0.898438 0.335938 -0.0820312 1.214844 0.00390625 2.300781 L 1.339844 18.699219 C 4.667969 21.320312 11.332031 21.320312 14.660156 18.699219 L 15.996094 2.300781 C 16.082031 1.214844 15.101562 0.335938 13.996094 0.335938 Z M 2.003906 1.648438 L 13.996094 1.648438 C 14.363281 1.648438 14.695312 1.941406 14.660156 2.300781 L 13.328125 17.386719 C 10 20.007812 6 20.007812 2.671875 17.386719 L 1.339844 2.300781 C 1.304688 1.941406 1.636719 1.648438 2.003906 1.648438 Z M 2.003906 1.648438 "/>
<path style=" stroke:none;fill-rule:nonzero;fill:rgb(92.941177%,92.941177%,92.941177%);fill-opacity:1;" d="M 6.175781 13.742188 L 3.847656 14.507812 L 2.894531 10.46875 L 4.472656 10.1875 L 4.269531 5.660156 L 7.730469 2.933594 L 10.726562 3.453125 L 10.105469 7.777344 L 12.71875 9.765625 L 12.023438 13.398438 L 9.851562 13.085938 L 8.40625 17.203125 L 6.234375 16.890625 Z M 6.175781 13.742188 "/>
<path style="fill:none;stroke-width:0.866;stroke-linecap:butt;stroke-linejoin:miter;stroke:rgb(53.725493%,53.725493%,53.725493%);stroke-opacity:1;stroke-miterlimit:4;" d="M 4.635022 10.221937 L 4.591046 7.821478 M 3.3568 7.508763 L 5.523328 7.115635 L 7.349779 7.321134 M 7.584315 5.674168 L 5.004416 4.000399 M 7.393754 9.721593 L 5.763727 9.480356 " transform="matrix(1.332417,0,0,1.311598,0,0.335117)"/>
</g>
</svg>
