<?xml version="1.0" encoding="UTF-8"?>
<svg xmlns="http://www.w3.org/2000/svg" xmlns:xlink="http://www.w3.org/1999/xlink" width="16px" height="16px" viewBox="0 0 16 16" version="1.1">
<g id="surface1">
<path style=" stroke:none;fill-rule:nonzero;fill:rgb(96.078432%,96.078432%,96.078432%);fill-opacity:1;" d="M 7.726562 1.007812 C 3.90625 1.136719 0.898438 4.304688 0.960938 8.121094 C 1.023438 11.941406 4.140625 15.003906 7.960938 15.003906 C 11.78125 15.003906 14.894531 11.941406 14.960938 8.121094 C 15.023438 4.304688 12.011719 1.136719 8.195312 1.007812 Z M 8 4 C 10.210938 4 12 5.789062 12 8 L 12 8.5 C 12 9.128906 11.605469 9.691406 11.015625 9.90625 C 10.421875 10.121094 9.761719 9.945312 9.355469 9.464844 C 8.777344 10.011719 7.925781 10.160156 7.195312 9.839844 C 6.464844 9.523438 5.996094 8.796875 6.003906 8 C 5.957031 7.257812 6.328125 6.550781 6.964844 6.164062 C 7.601562 5.777344 8.402344 5.777344 9.039062 6.164062 C 9.675781 6.550781 10.046875 7.257812 10 8 L 10 8.5 C 10 8.777344 10.226562 9 10.5 9 C 10.777344 9 11 8.777344 11 8.5 L 11 8 C 11 6.34375 9.65625 4.996094 8 4.996094 C 6.339844 4.996094 4.996094 6.339844 4.996094 8 C 4.996094 9.65625 6.34375 11 8 11 L 10.5 11 C 10.5 11 11 11 11 11.503906 C 10.96875 12 10.5 12 10.5 12 L 8 12 C 5.792969 12 4 10.210938 4 8 C 4 5.789062 5.792969 4 8 4 Z M 8 7 C 7.449219 7 7 7.449219 7 8 C 7 8.554688 7.449219 9.003906 8 9.003906 C 8.554688 9.003906 9.003906 8.554688 9.003906 8 C 9.003906 7.449219 8.554688 7 8 7 Z M 8 7 "/>
</g>
</svg>
