<?xml version="1.0" encoding="UTF-8"?>
<svg xmlns="http://www.w3.org/2000/svg" xmlns:xlink="http://www.w3.org/1999/xlink" width="16px" height="16px" viewBox="0 0 16 16" version="1.1">
<g id="surface1">
<path style=" stroke:none;fill-rule:nonzero;fill:rgb(96.078432%,96.078432%,96.078432%);fill-opacity:1;" d="M 7 1 C 5.894531 1 4.996094 1.898438 4.996094 3.003906 L 4.996094 9.191406 C 4.679688 9.070312 4.339844 9.007812 4 9.003906 C 2.339844 9.003906 0.996094 10.347656 0.996094 12.003906 C 0.996094 13.664062 2.339844 15.007812 4 15.007812 C 5.65625 15.007812 7 13.664062 7 12.003906 L 7 5.003906 L 13 5.003906 L 13 9.191406 C 12.679688 9.070312 12.34375 9.007812 12 9.003906 C 10.34375 9.003906 9 10.347656 9 12.003906 C 9 13.664062 10.34375 15.007812 12 15.007812 C 13.660156 15.007812 15.003906 13.664062 15.003906 12.003906 L 15.003906 3.003906 C 15.003906 1.898438 14.105469 1 13 1 Z M 7 1 "/>
</g>
</svg>
