<?xml version="1.0" encoding="UTF-8"?>
<svg xmlns="http://www.w3.org/2000/svg" xmlns:xlink="http://www.w3.org/1999/xlink" width="16px" height="16px" viewBox="0 0 16 16" version="1.1">
<g id="surface1">
<path style=" stroke:none;fill-rule:nonzero;fill:rgb(96.078432%,96.078432%,96.078432%);fill-opacity:1;" d="M 14 1 C 14.554688 1 15.003906 1.449219 15.003906 2.003906 L 15.003906 4.007812 C 15.003906 4.273438 14.894531 4.527344 14.707031 4.714844 C 14.519531 4.902344 14.265625 5.003906 14 5.003906 L 2.003906 5.003906 C 1.738281 5.003906 1.484375 4.898438 1.296875 4.710938 C 1.109375 4.523438 1.003906 4.269531 1.003906 4.003906 L 1.003906 2.003906 C 1.003906 1.449219 1.453125 1 2.003906 1 Z M 13.003906 2.003906 C 12.449219 2.003906 12 2.453125 12 3.003906 C 12 3.558594 12.449219 4.007812 13.003906 4.007812 C 13.554688 4.007812 14.003906 3.558594 14.003906 3.003906 C 14.003906 2.453125 13.554688 2.003906 13.003906 2.003906 Z M 14 5.878906 C 14.554688 5.878906 15.003906 6.324219 15.003906 6.878906 L 15.003906 9.003906 C 15.003906 9.269531 14.898438 9.523438 14.710938 9.714844 C 14.523438 9.902344 14.265625 10.007812 14 10.003906 L 2.003906 10.003906 C 1.738281 10.003906 1.484375 9.898438 1.296875 9.710938 C 1.109375 9.523438 1.003906 9.269531 1.003906 9.003906 L 1.003906 6.878906 C 1.003906 6.324219 1.453125 5.878906 2.003906 5.878906 Z M 13.003906 7.003906 C 12.449219 7.003906 12 7.453125 12 8.003906 C 12 8.558594 12.449219 9.007812 13.003906 9.007812 C 13.554688 9.007812 14.003906 8.558594 14.003906 8.003906 C 14.003906 7.453125 13.554688 7.003906 13.003906 7.003906 Z M 14 11.003906 C 14.554688 11.003906 15.003906 11.449219 15.003906 12.003906 L 15.003906 14.003906 C 15.003906 14.269531 14.898438 14.527344 14.710938 14.714844 C 14.523438 14.902344 14.265625 15.007812 14 15.007812 L 2.003906 15.007812 C 1.738281 15.007812 1.484375 14.898438 1.296875 14.710938 C 1.109375 14.523438 1.003906 14.269531 1.003906 14.003906 L 1.003906 12 C 1.003906 11.449219 1.453125 11.003906 2.003906 11.003906 Z M 13.003906 12.003906 C 12.449219 12.003906 12.003906 12.449219 12 13.003906 C 12 13.554688 12.449219 14.003906 13.003906 14.003906 C 13.554688 14.003906 14 13.554688 14 13.003906 C 14 12.453125 13.554688 12.007812 13.003906 12.003906 Z M 13.003906 12.003906 "/>
</g>
</svg>
