<?xml version="1.0" encoding="UTF-8"?>
<svg xmlns="http://www.w3.org/2000/svg" xmlns:xlink="http://www.w3.org/1999/xlink" width="16px" height="16px" viewBox="0 0 16 16" version="1.1">
<g id="surface1">
<path style=" stroke:none;fill-rule:nonzero;fill:rgb(96.078432%,96.078432%,96.078432%);fill-opacity:0.841;" d="M 2.285156 0 L 5.714844 0 L 8 2.285156 L 13.714844 2.285156 C 14.980469 2.285156 16 3.304688 16 4.570312 L 16 13.714844 C 16 14.980469 14.980469 16 13.714844 16 L 2.285156 16 C 1.019531 16 0 14.980469 0 13.714844 L 0 2.285156 C 0 1.019531 1.019531 0 2.285156 0 Z M 2.285156 0 "/>
<path style=" stroke:none;fill-rule:nonzero;fill:rgb(96.078432%,96.078432%,96.078432%);fill-opacity:1;" d="M 3.429688 6.855469 L 12.570312 6.855469 C 13.832031 6.855469 14.855469 7.878906 14.855469 9.144531 L 14.855469 12.570312 C 14.855469 13.832031 13.832031 14.855469 12.570312 14.855469 L 3.429688 14.855469 C 2.167969 14.855469 1.144531 13.832031 1.144531 12.570312 L 1.144531 9.144531 C 1.144531 7.878906 2.167969 6.855469 3.429688 6.855469 Z M 3.429688 6.855469 "/>
<path style=" stroke:none;fill-rule:nonzero;fill:rgb(96.078432%,96.078432%,96.078432%);fill-opacity:1;" d="M 3.429688 8 L 12.570312 8 C 13.832031 8 14.855469 9.023438 14.855469 10.285156 L 14.855469 13.714844 C 14.855469 14.976562 13.832031 16 12.570312 16 L 3.429688 16 C 2.167969 16 1.144531 14.976562 1.144531 13.714844 L 1.144531 10.285156 C 1.144531 9.023438 2.167969 8 3.429688 8 Z M 3.429688 8 "/>
</g>
</svg>
