<?xml version="1.0" encoding="UTF-8" standalone="no"?>
<!-- Created with Inkscape (http://www.inkscape.org/) -->

<svg
   xmlns:dc="http://purl.org/dc/elements/1.1/"
   xmlns:cc="http://creativecommons.org/ns#"
   xmlns:rdf="http://www.w3.org/1999/02/22-rdf-syntax-ns#"
   xmlns:svg="http://www.w3.org/2000/svg"
   xmlns="http://www.w3.org/2000/svg"
   xmlns:sodipodi="http://sodipodi.sourceforge.net/DTD/sodipodi-0.dtd"
   xmlns:inkscape="http://www.inkscape.org/namespaces/inkscape"
   id="svg3215"
   height="24"
   width="24"
   version="1.0"
   inkscape:version="0.92.4 5da689c313, 2019-01-14"
   sodipodi:docname="klipper.svgz">
  <defs
     id="defs9" />
  <sodipodi:namedview
     pagecolor="#969696"
     bordercolor="#666666"
     borderopacity="1"
     objecttolerance="10"
     gridtolerance="10"
     guidetolerance="10"
     inkscape:pageopacity="0.58823529"
     inkscape:pageshadow="2"
     inkscape:window-width="1304"
     inkscape:window-height="718"
     id="namedview7"
     showgrid="true"
     inkscape:zoom="5.3636365"
     inkscape:cx="17.601271"
     inkscape:cy="25.793509"
     inkscape:window-x="62"
     inkscape:window-y="24"
     inkscape:window-maximized="1"
     inkscape:current-layer="svg3215">
    <inkscape:grid
       type="xygrid"
       id="grid2986"
       empspacing="5"
       visible="true"
       enabled="true"
       snapvisiblegridlinesonly="true" />
  </sodipodi:namedview>
  <metadata
     id="metadata12">
    <rdf:RDF>
      <cc:Work
         rdf:about="">
        <dc:format>image/svg+xml</dc:format>
        <dc:type
           rdf:resource="http://purl.org/dc/dcmitype/StillImage" />
        <dc:title />
      </cc:Work>
    </rdf:RDF>
  </metadata>
  <g
     id="klipper"
     transform="matrix(1.3333333,0,0,1.3333333,28.666533,-32.999999)"
     style="stroke-width:0.75">
    <rect
       y="0"
       x="0"
       height="24"
       width="24"
       id="rect2991"
       style="opacity:0.01000001;fill:#000000;fill-opacity:0.00392157;stroke:none;stroke-width:0.75" />
    <g
       transform="translate(1,1)"
       id="g3327"
       style="stroke-width:0.75">
      <rect
         style="opacity:0.3;fill:#000000;fill-opacity:1;fill-rule:evenodd;stroke:none;stroke-width:0.75"
         id="rect3608"
         width="8.071744"
         height="2.9873998"
         x="7"
         y="3.7126002"
         ry="1.3540069" />
      <path
         style="opacity:0.3;fill:#000000;fill-opacity:1;fill-rule:evenodd;stroke:none;stroke-width:0.75"
         d="M 5.5625,4.8888889 C 4.6969021,4.8888889 4,5.6136005 4,6.5137396 V 18.375149 C 4,19.275288 4.6969021,20 5.5625,20 h 10.875 C 17.303098,20 18,19.275288 18,18.375149 V 6.5137396 C 18,5.6136005 17.303098,4.8888889 16.4375,4.8888889 Z M 6,8.5610514 H 16 V 17.920191 H 6 Z"
         id="rect3604"
         inkscape:connector-curvature="0" />
      <path
         d="M 7.5001001,10.500008 V 16.5 H 12.506609 L 14.5,14.78921 14.477871,10.500008 H 7.5 l 3e-6,-8e-6 z"
         style="opacity:0.3;fill:#000000;fill-opacity:1;stroke-width:0.75"
         id="rect4897-3"
         inkscape:connector-curvature="0" />
      <path
         d="M 7.5001001,9.5000086 V 15.5 H 12.506609 L 14.5,13.789209 14.477871,9.5000086 H 7.5 l 3e-6,-8.6e-6 z"
         style="fill:#ebebeb;fill-opacity:1;stroke-width:0.75"
         id="rect4897"
         inkscape:connector-curvature="0" />
      <path
         id="path3187"
         style="fill:#ebebeb;fill-opacity:1;fill-rule:evenodd;stroke:none;stroke-width:0.75"
         d="M 5.5625,3.888889 C 4.696908,3.888889 4,4.6135984 4,5.5137397 V 17.375149 C 4,18.275291 4.696908,19 5.5625,19 h 10.875 C 17.303092,19 18,18.275291 18,17.375149 V 5.5137397 C 18,4.6135984 17.303092,3.888889 16.4375,3.888889 Z m 0.40625,3.7696535 h 10 v 9.3591395 h -10 z M 7.715632,4.5785411 h 6.502364 c 0.266339,0 0.47005,0.4570755 0.47005,0.9844692 0,0.5273938 -0.203711,0.9141498 -0.47005,0.9141498 H 7.715632 c -0.26634,0 -0.496164,-0.386756 -0.496164,-0.9141498 0,-0.5273937 0.229824,-0.9844692 0.496164,-0.9844692 z"
         inkscape:connector-curvature="0" />
      <rect
         style="fill:#ebebeb;fill-opacity:1;fill-rule:evenodd;stroke:none;stroke-width:0.75"
         id="rect3608-4"
         width="8.071744"
         height="2.9873803"
         x="7.0000005"
         y="2.7120509"
         ry="1.3539979" />
    </g>
  </g>
  <g
     id="22-22-klipper"
     transform="translate(34,1)">
    <rect
       style="opacity:0.01000001;fill:#000000;fill-opacity:0.00392157;stroke:none;stroke-width:0.99999994"
       id="rect821"
       width="22"
       height="22"
       x="1"
       y="1" />
    <g
       id="g835"
       transform="translate(1,1)">
      <rect
         ry="1.3540069"
         y="3.7126002"
         x="7"
         height="2.9873998"
         width="8.071744"
         id="rect823"
         style="opacity:0.3;fill:#000000;fill-opacity:1;fill-rule:evenodd;stroke:none" />
      <path
         inkscape:connector-curvature="0"
         id="path825"
         d="M 5.5625,4.8888889 C 4.6969021,4.8888889 4,5.6136005 4,6.5137396 V 18.375149 C 4,19.275288 4.6969021,20 5.5625,20 h 10.875 C 17.303098,20 18,19.275288 18,18.375149 V 6.5137396 C 18,5.6136005 17.303098,4.8888889 16.4375,4.8888889 Z M 6,8.5610514 H 16 V 17.920191 H 6 Z"
         style="opacity:0.3;fill:#000000;fill-opacity:1;fill-rule:evenodd;stroke:none" />
      <path
         inkscape:connector-curvature="0"
         id="path827"
         style="opacity:0.3;fill:#000000;fill-opacity:1"
         d="M 7.5001001,10.500008 V 16.5 H 12.506609 L 14.5,14.78921 14.477871,10.500008 H 7.5 l 3e-6,-8e-6 z" />
      <path
         inkscape:connector-curvature="0"
         id="path829"
         style="fill:#ebebeb;fill-opacity:1"
         d="M 7.5001001,9.5000086 V 15.5 H 12.506609 L 14.5,13.789209 14.477871,9.5000086 H 7.5 l 3e-6,-8.6e-6 z" />
      <path
         inkscape:connector-curvature="0"
         d="M 5.5625,3.888889 C 4.696908,3.888889 4,4.6135984 4,5.5137397 V 17.375149 C 4,18.275291 4.696908,19 5.5625,19 h 10.875 C 17.303092,19 18,18.275291 18,17.375149 V 5.5137397 C 18,4.6135984 17.303092,3.888889 16.4375,3.888889 Z m 0.40625,3.7696535 h 10 v 9.3591395 h -10 z M 7.715632,4.5785411 h 6.502364 c 0.266339,0 0.47005,0.4570755 0.47005,0.9844692 0,0.5273938 -0.203711,0.9141498 -0.47005,0.9141498 H 7.715632 c -0.26634,0 -0.496164,-0.386756 -0.496164,-0.9141498 0,-0.5273937 0.229824,-0.9844692 0.496164,-0.9844692 z"
         style="fill:#ebebeb;fill-opacity:1;fill-rule:evenodd;stroke:none"
         id="path831" />
      <rect
         ry="1.3539979"
         y="2.7120509"
         x="7.0000005"
         height="2.9873803"
         width="8.071744"
         id="rect833"
         style="fill:#ebebeb;fill-opacity:1;fill-rule:evenodd;stroke:none" />
    </g>
  </g>
</svg>
