<?xml version="1.0" encoding="UTF-8" standalone="no"?>
<!-- Created with Inkscape (http://www.inkscape.org/) -->

<svg
   xmlns:dc="http://purl.org/dc/elements/1.1/"
   xmlns:cc="http://creativecommons.org/ns#"
   xmlns:rdf="http://www.w3.org/1999/02/22-rdf-syntax-ns#"
   xmlns:svg="http://www.w3.org/2000/svg"
   xmlns="http://www.w3.org/2000/svg"
   xmlns:sodipodi="http://sodipodi.sourceforge.net/DTD/sodipodi-0.dtd"
   xmlns:inkscape="http://www.inkscape.org/namespaces/inkscape"
   id="svg3738"
   height="24"
   width="24"
   version="1.1"
   inkscape:version="0.91 r13725"
   sodipodi:docname="zoom.svgz">
  <defs
     id="defs8" />
  <sodipodi:namedview
     pagecolor="#969696"
     bordercolor="#666666"
     borderopacity="1"
     objecttolerance="10"
     gridtolerance="10"
     guidetolerance="10"
     inkscape:pageopacity="0.58823529"
     inkscape:pageshadow="2"
     inkscape:window-width="1548"
     inkscape:window-height="841"
     id="namedview6"
     showgrid="false"
     inkscape:zoom="8"
     inkscape:cx="33.522276"
     inkscape:cy="3.4322642"
     inkscape:window-x="52"
     inkscape:window-y="30"
     inkscape:window-maximized="1"
     inkscape:current-layer="svg3738"
     inkscape:snap-grids="true"
     inkscape:snap-to-guides="true"
     showguides="true"
     inkscape:guide-bbox="true"
     inkscape:snap-bbox="true"
     inkscape:snap-intersection-paths="true"
     inkscape:object-nodes="true">
    <inkscape:grid
       type="xygrid"
       id="grid2985"
       empspacing="5"
       visible="true"
       enabled="true"
       snapvisiblegridlinesonly="true" />
  </sodipodi:namedview>
  <metadata
     id="metadata13">
    <rdf:RDF>
      <cc:Work
         rdf:about="">
        <dc:format>image/svg+xml</dc:format>
        <dc:type
           rdf:resource="http://purl.org/dc/dcmitype/StillImage" />
        <dc:title />
      </cc:Work>
    </rdf:RDF>
  </metadata>
  <g
     id="zoom-fit-width">
    <rect
       y="0"
       x="0"
       height="24"
       width="24"
       id="rect2991"
       style="opacity:0.01000001;fill:#000000;fill-opacity:0.00392157;stroke:none" />
    <g
       transform="translate(0,-30)"
       id="g4429">
      <g
         transform="matrix(1.4285714,0,0,1.4285714,0.5714286,31.571429)"
         style="opacity:0.3;fill:#000000;fill-opacity:1;stroke:none"
         id="g4-3-2-3">
        <g
           style="fill:#000000;fill-opacity:1"
           id="g7-4-1-1">
          <path
             inkscape:connector-curvature="0"
             id="rect2816-4-0-9"
             d="m 9,1.9941 3,0 c 0.978494,0 2,0.9941 2,1.9882 l 0,4.9817 -2,0 C 12,4 12,4 9,3.9823 9.029473,3.5463 9,1.9941 9,1.9941 Z m -5,0 3,0 c 0,0 -0.029473,1.5522 0,1.9882 -3,0.018 -3,0.018 -3,4.9817 l -2,0 0,-4.9817 C 2,2.9882 3.02151,1.9941 4,1.9941 Z M 3.0625,1 C 1.91877,1 1,1.8743 1,2.9519 L 1,13.0481 C 1,14.1257 1.918769,15 3.0625,15 l 9.875,0 C 14.08123,15 15,14.1257 15,13.0481 L 15,2.9519 C 15,1.8743 14.081231,1 12.9375,1 Z"
             style="fill:#000000;fill-opacity:1" />
        </g>
      </g>
      <g
         transform="matrix(1.4285714,0,0,1.4285714,0.57142857,30.571429)"
         style="fill:#ebebeb;fill-opacity:1;stroke:none"
         id="g4-3-2">
        <g
           style="fill:#ebebeb;fill-opacity:1"
           id="g7-4-1">
          <path
             inkscape:connector-curvature="0"
             id="rect2816-4-0"
             d="m 9,1.9941 3,0 c 0.978494,0 2,0.9941 2,1.9882 l 0,4.9817 -2,0 C 12,4 12,4 9,3.9823 9.029473,3.5463 9,1.9941 9,1.9941 Z m -5,0 3,0 c 0,0 -0.029473,1.5522 0,1.9882 -3,0.018 -3,0.018 -3,4.9817 l -2,0 0,-4.9817 C 2,2.9882 3.02151,1.9941 4,1.9941 Z M 3.0625,1 C 1.91877,1 1,1.8743 1,2.9519 L 1,13.0481 C 1,14.1257 1.918769,15 3.0625,15 l 9.875,0 C 14.08123,15 15,14.1257 15,13.0481 L 15,2.9519 C 15,1.8743 14.081231,1 12.9375,1 Z"
             style="fill:#ebebeb;fill-opacity:1" />
        </g>
      </g>
    </g>
  </g>
  <g
     id="zoom-fit-height">
    <rect
       y="0"
       x="34"
       height="24"
       width="24"
       id="rect2991-3"
       style="opacity:0.01000001;fill:#000000;fill-opacity:0.00392157;stroke:none" />
    <g
       transform="translate(0,-30)"
       id="g4437">
      <g
         transform="matrix(0,-1.4285714,1.4285714,0,34.571429,54.428571)"
         style="opacity:0.3;fill:#000000;fill-opacity:1;stroke:none"
         id="g4-3-2-1-6">
        <g
           style="fill:#000000;fill-opacity:1"
           id="g7-4-1-3-6">
          <path
             inkscape:connector-curvature="0"
             id="rect2816-4-0-5-2"
             d="m 9,1.9941 3,0 c 0.978494,0 2,0.9941 2,1.9882 l 0,4.9817 -2,0 C 12,4 12,4 9,3.9823 9.029473,3.5463 9,1.9941 9,1.9941 Z m -5,0 3,0 c 0,0 -0.029473,1.5522 0,1.9882 -3,0.018 -3,0.018 -3,4.9817 l -2,0 0,-4.9817 C 2,2.9882 3.02151,1.9941 4,1.9941 Z M 3.0625,1 C 1.91877,1 1,1.8743 1,2.9519 L 1,13.0481 C 1,14.1257 1.918769,15 3.0625,15 l 9.875,0 C 14.08123,15 15,14.1257 15,13.0481 L 15,2.9519 C 15,1.8743 14.081231,1 12.9375,1 Z"
             style="fill:#000000;fill-opacity:1" />
        </g>
      </g>
      <g
         transform="matrix(0,-1.4285714,1.4285714,0,34.571429,53.428571)"
         style="fill:#ebebeb;fill-opacity:1;stroke:none"
         id="g4-3-2-1">
        <g
           style="fill:#ebebeb;fill-opacity:1"
           id="g7-4-1-3">
          <path
             inkscape:connector-curvature="0"
             id="rect2816-4-0-5"
             d="m 9,1.9941 3,0 c 0.978494,0 2,0.9941 2,1.9882 l 0,4.9817 -2,0 C 12,4 12,4 9,3.9823 9.029473,3.5463 9,1.9941 9,1.9941 Z m -5,0 3,0 c 0,0 -0.029473,1.5522 0,1.9882 -3,0.018 -3,0.018 -3,4.9817 l -2,0 0,-4.9817 C 2,2.9882 3.02151,1.9941 4,1.9941 Z M 3.0625,1 C 1.91877,1 1,1.8743 1,2.9519 L 1,13.0481 C 1,14.1257 1.918769,15 3.0625,15 l 9.875,0 C 14.08123,15 15,14.1257 15,13.0481 L 15,2.9519 C 15,1.8743 14.081231,1 12.9375,1 Z"
             style="fill:#ebebeb;fill-opacity:1" />
        </g>
      </g>
    </g>
  </g>
</svg>
