<?xml version="1.0" encoding="UTF-8" standalone="no"?>
<svg
   xmlns:dc="http://purl.org/dc/elements/1.1/"
   xmlns:cc="http://creativecommons.org/ns#"
   xmlns:rdf="http://www.w3.org/1999/02/22-rdf-syntax-ns#"
   xmlns:svg="http://www.w3.org/2000/svg"
   xmlns="http://www.w3.org/2000/svg"
   xmlns:xlink="http://www.w3.org/1999/xlink"
   xmlns:sodipodi="http://sodipodi.sourceforge.net/DTD/sodipodi-0.dtd"
   xmlns:inkscape="http://www.inkscape.org/namespaces/inkscape"
   width="256"
   height="256"
   version="1.1"
   viewBox="0 0 67.73 67.73"
   id="svg69"
   sodipodi:docname="file-manager.svg"
   inkscape:version="0.92.4 5da689c313, 2019-01-14">
  <metadata
     id="metadata73">
    <rdf:RDF>
      <cc:Work
         rdf:about="">
        <dc:format>image/svg+xml</dc:format>
        <dc:type
           rdf:resource="http://purl.org/dc/dcmitype/StillImage" />
      </cc:Work>
    </rdf:RDF>
  </metadata>
  <sodipodi:namedview
     pagecolor="#ffffff"
     bordercolor="#666666"
     borderopacity="1"
     objecttolerance="10"
     gridtolerance="10"
     guidetolerance="10"
     inkscape:pageopacity="0"
     inkscape:pageshadow="2"
     inkscape:window-width="1304"
     inkscape:window-height="740"
     id="namedview71"
     showgrid="false"
     inkscape:zoom="1.3037281"
     inkscape:cx="39.175353"
     inkscape:cy="133.73878"
     inkscape:window-x="62"
     inkscape:window-y="28"
     inkscape:window-maximized="1"
     inkscape:current-layer="g67" />
  <defs
     id="defs41">
    <clipPath
       id="clipPath1025-3">
      <path
         d="m111.94141 84c-12.581904 0.145-21.78831-0.286002-29.31641 3.867188-3.7641 2.0768-6.751838 5.574737-8.398438 9.960937-1.6465 4.386205-2.226562 9.595975-2.226562 16.171875v42h160v-26c0-6.5759-0.57996-11.78566-2.22656-16.17188-0.205-0.5455-0.47919-1.03993-0.74219-1.54296-0.1-0.1848-0.17844-0.38051-0.27344-0.56641-1.727-3.38752-4.25471-6.14522-7.38281-7.87109-7.5287-4.153514-16.73451-3.70226-29.31641-3.84766h-40.39062l-16.21485-16h-23.49218z"
         style="fill:#e3dfd5"
         id="path2" />
    </clipPath>
    <filter
       id="filter1029"
       x="-.02"
       y="-.03"
       width="1.043"
       height="1.054"
       style="color-interpolation-filters:sRGB">
      <feGaussianBlur
         stdDeviation="1.44"
         id="feGaussianBlur5" />
    </filter>
    <linearGradient
       id="linearGradient936"
       x1="96"
       x2="191"
       y1="92"
       y2="183"
       gradientTransform="translate(-26.432006,-40.431995)"
       gradientUnits="userSpaceOnUse">
      <stop
         style="stop-color:#000000;stop-opacity:0"
         offset="0"
         id="stop8" />
      <stop
         style="stop-color:#000000"
         offset=".337"
         id="stop10" />
      <stop
         style="stop-color:#000000;stop-opacity:0"
         offset="1"
         id="stop12" />
    </linearGradient>
    <filter
       id="filter1039"
       x="-.01"
       y="-.01"
       width="1.023"
       height="1.025"
       style="color-interpolation-filters:sRGB">
      <feGaussianBlur
         stdDeviation=".76"
         id="feGaussianBlur15" />
    </filter>
    <linearGradient
       id="linearGradient1108"
       x1="296"
       x2="296"
       y1="-212"
       y2="236"
       gradientUnits="userSpaceOnUse">
      <stop
         style="stop-color:#ffffff"
         offset="0"
         id="stop18" />
      <stop
         style="stop-color:#ffffff;stop-opacity:.09803922"
         offset=".125"
         id="stop20" />
      <stop
         style="stop-color:#000000;stop-opacity:.09803922"
         offset=".925"
         id="stop22" />
      <stop
         style="stop-color:#000000;stop-opacity:.49803922"
         offset="1"
         id="stop24" />
    </linearGradient>
    <clipPath
       id="clipPath1082-3-7">
      <path
         d="M 361.9375,-212 C 507.2348,-212 528,-191.28677 528,-46.125 V 70.125 C 528,215.28618 507.2348,236 361.9375,236 H 214.0625 C 68.7652,236 48,215.28618 48,70.125 V -46.125 C 48,-191.28677 68.7652,-212 214.0625,-212 Z"
         style="fill:#8c59d9"
         id="path27" />
    </clipPath>
    <linearGradient
       id="linearGradient1003"
       x1="16"
       x2="288"
       y1="28"
       y2="284"
       gradientTransform="matrix(.26458333 0 0 .26458333 -6.993469 221.97263)"
       gradientUnits="userSpaceOnUse">
      <stop
         style="stop-color:#a4a4a4;stop-opacity:1"
         offset="0"
         id="stop30" />
      <stop
         style="stop-color:#ffffff;stop-opacity:1"
         offset="1"
         id="stop32" />
    </linearGradient>
    <filter
       id="filter4569"
       x="-.01"
       y="-.01"
       width="1.023"
       height="1.025"
       style="color-interpolation-filters:sRGB">
      <feGaussianBlur
         stdDeviation="1.16"
         id="feGaussianBlur35" />
    </filter>
    <filter
       id="filter935"
       x="-.02"
       y="-.03"
       width="1.046"
       height="1.05"
       style="color-interpolation-filters:sRGB">
      <feGaussianBlur
         stdDeviation="2.32"
         id="feGaussianBlur38" />
    </filter>
    <linearGradient
       id="c">
      <stop
         id="stop883"
         stop-color="#fff"
         offset="0" />
      <stop
         id="stop885"
         stop-opacity=".204"
         stop-color="#fff"
         offset="1" />
    </linearGradient>
    <linearGradient
       y2="478"
       x2="224"
       y1="86"
       x1="224"
       gradientTransform="matrix(0.0321,0,0,0.03105,-26.932,292.392)"
       gradientUnits="userSpaceOnUse"
       id="j"
       xlink:href="#a" />
    <linearGradient
       id="a">
      <stop
         id="stop889"
         stop-color="#fb7c38"
         offset="0" />
      <stop
         id="stop891"
         stop-color="#fda463"
         offset="1" />
    </linearGradient>
    <linearGradient
       y2="52"
       x2="48"
       y1="252"
       x1="264"
       gradientUnits="userSpaceOnUse"
       id="f"
       xlink:href="#b"
       gradientTransform="translate(-27.28,-38.771)" />
    <linearGradient
       id="b">
      <stop
         id="stop895"
         offset="0" />
      <stop
         id="stop897"
         stop-opacity=".433"
         offset=".159" />
      <stop
         id="stop899"
         stop-opacity=".1"
         offset=".194" />
      <stop
         id="stop901"
         stop-opacity="0"
         offset="1" />
    </linearGradient>
    <filter
       color-interpolation-filters="sRGB"
       height="1.136"
       y="-.068"
       width="1.107"
       x="-.054"
       id="i">
      <feGaussianBlur
         id="feGaussianBlur904"
         stdDeviation="5" />
    </filter>
    <filter
       color-interpolation-filters="sRGB"
       height="1.127"
       y="-.064"
       width="1.114"
       x="-.057"
       id="g">
      <feGaussianBlur
         id="feGaussianBlur907"
         stdDeviation="5.3" />
    </filter>
    <filter
       color-interpolation-filters="sRGB"
       height="1.025"
       y="-.013"
       width="1.023"
       x="-.011"
       id="e">
      <feGaussianBlur
         id="feGaussianBlur910"
         stdDeviation="1.06" />
    </filter>
    <filter
       color-interpolation-filters="sRGB"
       height="1.025"
       y="-.013"
       width="1.023"
       x="-.011"
       id="d">
      <feGaussianBlur
         id="feGaussianBlur913"
         stdDeviation="1.06" />
    </filter>
    <radialGradient
       r="112"
       fy="39.684"
       fx="148"
       cy="39.684"
       cx="148"
       gradientTransform="matrix(0.07086,0,0,0.01741,-29.482,295.18)"
       gradientUnits="userSpaceOnUse"
       id="l"
       xlink:href="#c" />
    <radialGradient
       r="112"
       fy="-.126"
       fx="152"
       cy="-.126"
       cx="152"
       gradientTransform="matrix(0.07086,0,0,0.01802,-29.482,293.407)"
       gradientUnits="userSpaceOnUse"
       id="k"
       xlink:href="#c" />
    <clipPath
       id="h"
       clipPathUnits="userSpaceOnUse">
      <path
         id="path918"
         enable-background="accumulate"
         fill="#f6531e"
         overflow="visible"
         color="#000"
         style="marker:none"
         d="M78.994 52C43.626 52 40 54 40 89.297V140h224v-31.078C264 73.624 260.374 68 225.006 68H138l-16-16z" />
    </clipPath>
    <filter
       style="color-interpolation-filters:sRGB"
       height="1.025"
       y="-0.013"
       width="1.023"
       x="-0.011"
       id="d-3">
      <feGaussianBlur
         id="feGaussianBlur913-6"
         stdDeviation="1.06" />
    </filter>
    <filter
       style="color-interpolation-filters:sRGB"
       height="1.025"
       y="-0.013"
       width="1.023"
       x="-0.011"
       id="e-7">
      <feGaussianBlur
         id="feGaussianBlur910-5"
         stdDeviation="1.06" />
    </filter>
    <linearGradient
       y2="52"
       x2="48"
       y1="252"
       x1="264"
       gradientUnits="userSpaceOnUse"
       id="f-3"
       xlink:href="#b"
       gradientTransform="translate(-27.28,-38.771)" />
    <filter
       style="color-interpolation-filters:sRGB"
       height="1.127"
       y="-0.064000003"
       width="1.114"
       x="-0.057"
       id="g-1">
      <feGaussianBlur
         id="feGaussianBlur907-2"
         stdDeviation="5.3" />
    </filter>
    <clipPath
       id="h-7"
       clipPathUnits="userSpaceOnUse">
      <path
         inkscape:connector-curvature="0"
         id="path918-0"
         overflow="visible"
         style="color:#000000;overflow:visible;fill:#f6531e;marker:none;enable-background:accumulate"
         d="M 78.994,52 C 43.626,52 40,54 40,89.297 V 140 H 264 V 108.922 C 264,73.624 260.374,68 225.006,68 H 138 L 122,52 Z" />
    </clipPath>
    <filter
       style="color-interpolation-filters:sRGB"
       height="1.136"
       y="-0.068000004"
       width="1.107"
       x="-0.054000001"
       id="i-9">
      <feGaussianBlur
         id="feGaussianBlur904-3"
         stdDeviation="5" />
    </filter>
    <linearGradient
       y2="478"
       x2="224"
       y1="86"
       x1="224"
       gradientTransform="matrix(0.0321,0,0,0.03105,-26.932,292.392)"
       gradientUnits="userSpaceOnUse"
       id="j-6"
       xlink:href="#a" />
    <radialGradient
       r="112"
       fy="-0.126"
       fx="152"
       cy="-0.126"
       cx="152"
       gradientTransform="matrix(0.07086,0,0,0.01802,-29.482,293.407)"
       gradientUnits="userSpaceOnUse"
       id="k-2"
       xlink:href="#c" />
    <radialGradient
       r="112"
       fy="39.683998"
       fx="148"
       cy="39.683998"
       cx="148"
       gradientTransform="matrix(0.07086,0,0,0.01741,-29.482,295.18)"
       gradientUnits="userSpaceOnUse"
       id="l-8"
       xlink:href="#c" />
  </defs>
  <g
     transform="translate(0,-229.26666)"
     id="g67">
    <path
       transform="matrix(0.26458333,0,0,0.26458333,-1.8735229e-8,232.67026)"
       d="m 162.53675,5.5680001 c 72.64865,0 83.03125,10.3566149 83.03125,82.9375049 v 58.125005 c 0,72.58059 -10.3826,82.9375 -83.03125,82.9375 H 88.599254 C 15.9506,229.56801 5.568,219.2111 5.568,146.63051 V 88.505505 c 0,-72.58089 10.3826,-82.9375049 83.031254,-82.9375049 z"
       style="opacity:0.2;filter:url(#filter935)"
       id="path43"
       inkscape:connector-curvature="0" />
    <path
       transform="matrix(0.26458333,0,0,0.26458333,-1.8735229e-8,232.67026)"
       d="m 162.53675,3.5680001 c 72.64865,0 83.03125,10.3566149 83.03125,82.9375049 v 58.125005 c 0,72.58059 -10.3826,82.9375 -83.03125,82.9375 H 88.599254 C 15.9506,227.56801 5.568,217.2111 5.568,144.63051 V 86.505505 c 0,-72.58089 10.3826,-82.9375049 83.031254,-82.9375049 z"
       style="opacity:0.1;filter:url(#filter4569)"
       id="path45"
       inkscape:connector-curvature="0" />
    <path
       d="m 43.004513,233.61429 c 19.221622,0 21.968685,2.74019 21.968685,21.94388 v 15.37891 c 0,19.20362 -2.747063,21.94388 -21.968685,21.94388 h -19.56263 c -19.221622,0 -21.968685,-2.74026 -21.968685,-21.94388 v -15.37891 c 0,-19.20369 2.7470629,-21.94388 21.968685,-21.94388 z"
       style="fill:url(#linearGradient1003)"
       id="path47"
       inkscape:connector-curvature="0" />
    <path
       d="M 47.957182,233.69698 1.827698,279.82646 c 1.1836884,11.21023 5.8741546,13.0545 21.614185,13.0545 h 19.56263 c 19.221622,0 21.968685,-2.74026 21.968685,-21.94388 v -15.37891 c 0,-17.41501 -2.259862,-21.29031 -17.016016,-21.86119 z"
       style="opacity:0.1;fill:#ffffff"
       id="path49"
       inkscape:connector-curvature="0" />
    <path
       transform="matrix(0.13229167,0,0,0.13229167,-4.876802,261.66013)"
       d="M 361.9375,-212 C 507.2348,-212 528,-191.28677 528,-46.125 V 70.125 C 528,215.28618 507.2348,236 361.9375,236 H 214.0625 C 68.7652,236 48,215.28618 48,70.125 V -46.125 C 48,-191.28677 68.7652,-212 214.0625,-212 Z"
       clip-path="url(#clipPath1082-3-7)"
       style="opacity:0.4;fill:none;stroke:url(#linearGradient1108);stroke-width:8;stroke-linecap:round;stroke-linejoin:round"
       id="path51"
       inkscape:connector-curvature="0" />
    <g
       id="g989"
       transform="matrix(3.031259,0,0,3.0531677,7.9481908,237.68743)"
       style="stroke-width:0.32870048">
      <g
         id="g943"
         style="color:#000000;stroke-width:0.32870048">
        <path
           id="path923"
           overflow="visible"
           transform="matrix(0.07086,0,0,0.06852,-0.371,0.446)"
           style="overflow:visible;opacity:0.1;stroke-width:0.32870048;marker:none;filter:url(#d-3);enable-background:accumulate"
           d="m 51.714,15.229 c -35.368,0 -38.994,1.999 -38.994,37.297 v 123.781 c 0,35.298 3.626,38.922 38.994,38.922 h 146.012 c 35.368,0 38.994,-3.624 38.994,-38.922 V 72.15 c 0,-35.298 -3.626,-40.922 -38.994,-40.922 H 110.72 l -16,-16 z"
           inkscape:connector-curvature="0" />
        <path
           id="path925"
           overflow="visible"
           transform="matrix(0.07086,0,0,0.06852,-0.371,0.446)"
           style="overflow:visible;opacity:0.1;stroke-width:0.32870048;marker:none;filter:url(#e-7);enable-background:accumulate"
           d="m 51.714,14.229 c -35.368,0 -38.994,1.999 -38.994,37.297 v 131.781 c 0,35.298 3.626,38.922 38.994,38.922 h 146.012 c 35.368,0 38.994,-3.624 38.994,-38.922 V 71.15 c 0,-35.298 -3.626,-40.922 -38.994,-40.922 H 110.72 l -16,-16 z"
           inkscape:connector-curvature="0" />
        <path
           id="path927"
           overflow="visible"
           transform="matrix(0.07086,0,0,0.06852,-0.371,0.446)"
           d="m 51.714,13.229 c -35.368,0 -38.994,1.999 -38.994,37.297 v 131.781 c 0,35.298 3.626,38.922 38.994,38.922 h 146.012 c 35.368,0 38.994,-3.624 38.994,-38.922 V 70.15 c 0,-35.298 -3.626,-40.922 -38.994,-40.922 H 110.72 l -16,-16 z"
           style="overflow:visible;opacity:0.4;fill:url(#f-3);stroke-width:0.32870048;marker:none;filter:url(#g-1);enable-background:accumulate"
           inkscape:connector-curvature="0" />
        <path
           id="path929"
           overflow="visible"
           style="overflow:visible;fill:#f34f17;stroke-width:0.32870048;marker:none;enable-background:accumulate"
           d="M 3.293,1.323 C 0.787,1.323 0.53,1.489 0.53,3.907 V 7.382 H 16.4 v -2.13 c 0,-2.418 -0.256,-2.87 -2.762,-2.87 H 7.408 L 6.34,1.321 Z"
           inkscape:connector-curvature="0" />
        <path
           id="path931"
           overflow="visible"
           style="overflow:visible;opacity:0.5;fill:#903906;stroke-width:0.32870048;marker:none;filter:url(#i-9);enable-background:accumulate"
           d="M 78.994,92 C 43.625,92 40,95.625 40,130.923 v 82.154 C 40,248.375 43.625,252 78.994,252 H 225.006 C 260.375,252 264,248.375 264,213.077 V 114.923 C 264,79.625 260.375,76 225.006,76 H 143.75 l -16.008,16 z"
           clip-path="url(#h-7)"
           transform="matrix(0.07086,0,0,0.06852,-2.304,-1.663)"
           inkscape:connector-curvature="0" />
        <path
           id="path933"
           transform="translate(27.178,-291.504)"
           overflow="visible"
           d="m -23.885,296.002 c -2.506,0 -2.763,0.391 -2.763,2.81 v 5.629 c 0,2.419 0.257,2.667 2.763,2.667 h 10.346 c 2.506,0 2.762,-0.248 2.762,-2.667 v -6.725 c 0,-2.419 -0.257,-2.818 -2.762,-2.772 h -5.758 l -1.134,1.058 z"
           style="overflow:visible;fill:url(#j-6);stroke-width:0.32870048;marker:none;enable-background:accumulate"
           inkscape:connector-curvature="0" />
        <path
           id="path935"
           transform="translate(27.178,-291.504)"
           overflow="visible"
           style="overflow:visible;opacity:0.4;fill:url(#k-2);stroke-width:0.32870048;marker:none;enable-background:accumulate"
           d="m -23.885,292.827 c -2.506,0 -2.763,0.166 -2.763,2.585 v 0.137 c 0,-2.419 0.257,-2.457 2.763,-2.457 h 3.047 l 1.068,1.058 h 6.23 c 2.507,0 2.763,0.325 2.763,2.744 v -0.138 c 0,-2.418 -0.256,-2.87 -2.762,-2.87 h -6.218 l -1.071,-1.059 z"
           inkscape:connector-curvature="0" />
        <path
           id="path937"
           transform="translate(27.178,-291.504)"
           overflow="visible"
           style="overflow:visible;opacity:0.4;fill:url(#l-8);stroke-width:0.32870048;marker:none;enable-background:accumulate"
           d="m -19.297,294.944 -1.134,1.058 h -3.454 c -2.506,0 -2.763,0.391 -2.763,2.81 v 0.137 c 0,-2.418 0.257,-2.682 2.763,-2.682 h 3.454 l 1.134,-1.059 h 5.758 c 2.506,0 2.762,0.226 2.762,2.645 v -0.137 c 0,-2.419 -0.256,-2.772 -2.762,-2.772 z"
           inkscape:connector-curvature="0" />
        <path
           id="path939"
           overflow="visible"
           style="overflow:visible;opacity:0.1;fill:#ffffff;stroke-width:0.32870048;marker:none;enable-background:accumulate"
           d="m 16.401,11.081 -4.534,4.258 h 1.772 c 2.506,0 2.762,-0.12 2.762,-2.54 z"
           inkscape:connector-curvature="0" />
        <path
           id="path941"
           overflow="visible"
           style="overflow:visible;opacity:0.2;fill:#491706;stroke-width:0.32870048;marker:none;enable-background:accumulate"
           d="m 0.53,12.8 v 0.137 c 0,2.418 0.257,2.673 2.763,2.673 h 10.346 c 2.506,0 2.762,-0.255 2.762,-2.673 V 12.8 c 0,2.418 -0.256,2.546 -2.762,2.546 H 3.293 C 0.787,15.346 0.53,15.218 0.53,12.8 Z"
           inkscape:connector-curvature="0" />
      </g>
      <g
         id="g8765"
         transform="matrix(1.5,0,0,1.5,5.4,6.3)"
         style="stroke-width:0.32870048" />
    </g>
  </g>
</svg>
