<svg xmlns="http://www.w3.org/2000/svg" xmlns:xlink="http://www.w3.org/1999/xlink" width="48" height="48" viewBox="0 0 12.7 12.7">
    <defs>
        <linearGradient gradientTransform="matrix(.26455 0 0 .26457 -84.672 268.426)" xlink:href="#a" id="b" gradientUnits="userSpaceOnUse" x1="344" y1="64" x2="344" y2="104"/>
        <linearGradient id="a">
            <stop offset="0" stop-color="#fb7c38"/>
            <stop offset="1" stop-color="#fda463"/>
        </linearGradient>
    </defs>
    <g color="#000">
        <path d="M2.579 1.059c-.767 0-1.336-.025-1.761.296-.215.163-.358.408-.44.719-.082.31-.113.691-.113 1.187v6.6c0 .516.014.91.07 1.229.057.319.165.578.367.758.202.18.464.254.766.289.302.035.66.034 1.11.034h7.541c.442 0 .797 0 1.097-.034.3-.035.563-.11.766-.288.204-.178.316-.437.376-.757.06-.319.076-.714.076-1.231V4.956c0-.068-.003-.113-.004-.16v-.003l.004-.496c.003-.48.005-.86-.03-1.179-.036-.318-.111-.59-.29-.8-.181-.213-.444-.329-.765-.39-.321-.06-.716-.075-1.23-.075H5.913l-.794-.794z" style="line-height:normal;font-variant-ligatures:normal;font-variant-position:normal;font-variant-caps:normal;font-variant-numeric:normal;font-variant-alternates:normal;font-feature-settings:normal;text-indent:0;text-align:start;text-decoration-line:none;text-decoration-style:solid;text-decoration-color:#000;text-transform:none;text-orientation:mixed;white-space:normal;shape-padding:0;isolation:auto;mix-blend-mode:normal;solid-color:#000;solid-opacity:1;marker:none" font-weight="400" overflow="visible" font-family="sans-serif" opacity=".1"/>
        <path d="M2.579.794C1.812.794 1.243.77.818 1.09c-.215.163-.358.408-.44.72-.082.309-.113.69-.113 1.187v2.295h12.169v-.6c0-.069-.003-.113-.004-.16v-.004l.004-.496c.003-.479.005-.86-.03-1.178-.036-.32-.111-.59-.29-.801-.181-.212-.444-.329-.765-.39-.321-.06-.716-.075-1.23-.075H5.913L5.119.794z" style="line-height:normal;font-variant-ligatures:normal;font-variant-position:normal;font-variant-caps:normal;font-variant-numeric:normal;font-variant-alternates:normal;font-feature-settings:normal;text-indent:0;text-align:start;text-decoration-line:none;text-decoration-style:solid;text-decoration-color:#000;text-transform:none;text-orientation:mixed;white-space:normal;shape-padding:0;isolation:auto;mix-blend-mode:normal;solid-color:#000;solid-opacity:1;marker:none" font-weight="400" overflow="visible" font-family="sans-serif" fill="#f34f17"/>
        <path d="M6.068 2.646l-.794.794H2.579c-1.802 0-2.05 0-2.05 2.045v.265c0-2.046.248-2.045 2.05-2.045h2.695l.794-.794h4.051c1.769 0 2.05 0 2.05 2.045v-.265c0-2.045-.281-2.045-2.05-2.045z" style="marker:none" overflow="visible" opacity=".3" fill="#fff"/>
        <path style="line-height:normal;font-variant-ligatures:normal;font-variant-position:normal;font-variant-caps:normal;font-variant-numeric:normal;font-variant-alternates:normal;font-feature-settings:normal;text-indent:0;text-align:start;text-decoration-line:none;text-decoration-style:solid;text-decoration-color:#000;text-transform:none;text-orientation:mixed;white-space:normal;shape-padding:0;isolation:auto;mix-blend-mode:normal;solid-color:#000;solid-opacity:1;marker:none" d="M10.121 286.946c.767 0 1.336-.025 1.761.296.215.163.358.408.44.72.082.309.113.69.113 1.187v4.748c0 .516-.014.91-.07 1.228-.057.32-.165.578-.367.758-.202.18-.464.254-.766.29-.302.034-.66.033-1.11.033H2.58c-.442 0-.797 0-1.097-.034-.3-.035-.563-.109-.766-.287-.204-.18-.316-.437-.376-.757s-.076-.714-.076-1.232v-3.052c0-.069.003-.113.004-.16v-.004l-.004-.496c-.003-.479-.005-.86.03-1.178.036-.32.111-.59.29-.801.181-.212.444-.329.765-.39.321-.06.718-.127 1.23-.075H5.2l.793-.794z" font-weight="400" overflow="visible" transform="translate(0 -284.3)" font-family="sans-serif" fill="url(#b)"/>
        <path style="marker:none" d="M12.417 8.467l-3.175 3.175h1.24c1.755 0 1.935-.18 1.935-1.931z" overflow="visible" opacity=".15" fill="#fff"/>
        <path d="M.265 9.332v.264c0 .517.014.91.07 1.23.057.318.165.577.367.757.202.18.464.254.766.29.302.034.66.033 1.11.033h7.541c.442 0 .797 0 1.097-.034.3-.035.563-.109.766-.287.204-.18.316-.437.376-.757s.076-.714.076-1.232v-.264c0 .517-.016.912-.076 1.231-.06.32-.172.578-.376.757-.203.179-.465.253-.766.288-.3.034-.655.034-1.097.034H2.58c-.45 0-.81 0-1.111-.034-.302-.035-.564-.11-.766-.29-.202-.18-.31-.438-.367-.757-.056-.319-.07-.713-.07-1.23z" style="line-height:normal;font-variant-ligatures:normal;font-variant-position:normal;font-variant-caps:normal;font-variant-numeric:normal;font-variant-alternates:normal;font-feature-settings:normal;text-indent:0;text-align:start;text-decoration-line:none;text-decoration-style:solid;text-decoration-color:#000;text-transform:none;text-orientation:mixed;white-space:normal;shape-padding:0;isolation:auto;mix-blend-mode:normal;solid-color:#000;solid-opacity:1;marker:none" font-weight="400" overflow="visible" font-family="sans-serif" opacity=".2" fill="#bd380a"/>
        <path d="M5.994 2.646L5.2 3.44H2.58a4.055 4.055 0 00-1.229.075c-.321.061-.584.178-.765.39-.18.21-.254.482-.29.8-.019.174-.026.37-.03.587h.011c.005-.112.009-.225.02-.322.035-.319.11-.59.29-.8.18-.213.443-.329.764-.39.32-.06.718-.127 1.23-.075H5.2l.794-.794h4.127c.767 0 1.336-.025 1.76.296.216.163.359.408.441.719.082.31.113.691.113 1.187V4.85c0-.496-.031-.878-.113-1.188-.082-.31-.225-.556-.44-.719-.425-.32-.994-.296-1.761-.296z" style="line-height:normal;font-variant-ligatures:normal;font-variant-position:normal;font-variant-caps:normal;font-variant-numeric:normal;font-variant-alternates:normal;font-feature-settings:normal;text-indent:0;text-align:start;text-decoration-line:none;text-decoration-style:solid;text-decoration-color:#000;text-transform:none;text-orientation:mixed;white-space:normal;shape-padding:0;isolation:auto;mix-blend-mode:normal;solid-color:#000;solid-opacity:1;marker:none" font-weight="400" overflow="visible" font-family="sans-serif" opacity=".2" fill="#fff"/>
        <path style="line-height:normal;font-variant-ligatures:normal;font-variant-position:normal;font-variant-caps:normal;font-variant-numeric:normal;font-variant-alternates:normal;font-feature-settings:normal;text-indent:0;text-align:start;text-decoration-line:none;text-decoration-style:solid;text-decoration-color:#000;text-transform:none;text-orientation:mixed;white-space:normal;shape-padding:0;isolation:auto;mix-blend-mode:normal;solid-color:#000;solid-opacity:1;marker:none" d="M5.994 2.382l-.794.793H2.58a4.058 4.058 0 00-1.229.076c-.321.06-.584.177-.765.389-.18.21-.254.482-.29.8a6.71 6.71 0 00-.03.587h.011c.005-.112.009-.225.02-.322.035-.318.11-.59.29-.8.18-.212.443-.329.764-.39.32-.06.718-.127 1.23-.075H5.2l.794-.794h4.127c.767 0 1.336-.025 1.76.296.216.163.359.408.441.719.082.31.113.692.113 1.187v-.264c0-.496-.031-.878-.113-1.188-.082-.31-.225-.556-.44-.718-.425-.322-.994-.296-1.761-.296z" font-weight="400" overflow="visible" font-family="sans-serif" opacity=".1" fill="#732206"/>
        <path d="M2.579.794C1.812.794 1.243.77.818 1.09c-.215.163-.358.408-.44.72-.082.309-.113.69-.113 1.187v.264c0-.496.03-.878.113-1.187.082-.311.225-.556.44-.72.425-.32.994-.295 1.76-.295h2.54l.795.793h4.206c.514 0 .909.015 1.23.076.321.06.584.177.764.389.18.21.255.482.29.801.018.16.027.334.03.53 0-.3-.005-.57-.03-.795-.035-.318-.11-.59-.29-.8-.18-.212-.443-.329-.764-.39-.321-.06-.716-.075-1.23-.075H5.913L5.119.794zm9.853 3.801l-.002.198v.003c0 .047.004.092.004.16v-.265z" style="line-height:normal;font-variant-ligatures:normal;font-variant-position:normal;font-variant-caps:normal;font-variant-numeric:normal;font-variant-alternates:normal;font-feature-settings:normal;text-indent:0;text-align:start;text-decoration-line:none;text-decoration-style:solid;text-decoration-color:#000;text-transform:none;text-orientation:mixed;white-space:normal;shape-padding:0;isolation:auto;mix-blend-mode:normal;solid-color:#000;solid-opacity:1;marker:none" font-weight="400" overflow="visible" font-family="sans-serif" opacity=".2" fill="#fff"/>
    </g>
      <g
     transform="scale(1.3 1.3) translate(3 3.5)"
     id="g8765">
              <g fill="#f5f5f5" transform="translate(-105.569 -25.93) scale(.26458)">
        <path d="M402 99h3l2 2h5c1.108 0 2 .892 2 2v8c0 1.108-.892 2-2 2h-10c-1.108 0-2-.892-2-2v-10c0-1.108.892-2 2-2z" fill-opacity=".841"/>
        <rect height="7" ry="2" width="12" x="401" y="105"/>
        <rect height="7" ry="2" width="12" x="401" y="106"/>
    </g>

      </g>
</svg>
