<?xml version="1.0" encoding="UTF-8" standalone="no"?>
<svg
   xmlns:dc="http://purl.org/dc/elements/1.1/"
   xmlns:cc="http://creativecommons.org/ns#"
   xmlns:rdf="http://www.w3.org/1999/02/22-rdf-syntax-ns#"
   xmlns:svg="http://www.w3.org/2000/svg"
   xmlns="http://www.w3.org/2000/svg"
   xmlns:xlink="http://www.w3.org/1999/xlink"
   xmlns:sodipodi="http://sodipodi.sourceforge.net/DTD/sodipodi-0.dtd"
   xmlns:inkscape="http://www.inkscape.org/namespaces/inkscape"
   width="48"
   height="48"
   viewBox="0 0 12.7 12.7"
   version="1.1"
   id="svg37"
   sodipodi:docname="desktop.svg"
   inkscape:version="0.92.4 5da689c313, 2019-01-14">
  <metadata
     id="metadata41">
    <rdf:RDF>
      <cc:Work
         rdf:about="">
        <dc:format>image/svg+xml</dc:format>
        <dc:type
           rdf:resource="http://purl.org/dc/dcmitype/StillImage" />
      </cc:Work>
    </rdf:RDF>
  </metadata>
  <sodipodi:namedview
     pagecolor="#ffffff"
     bordercolor="#666666"
     borderopacity="1"
     objecttolerance="10"
     gridtolerance="10"
     guidetolerance="10"
     inkscape:pageopacity="0"
     inkscape:pageshadow="2"
     inkscape:window-width="1314"
     inkscape:window-height="740"
     id="namedview39"
     showgrid="true"
     inkscape:zoom="9.8333333"
     inkscape:cx="21.825757"
     inkscape:cy="21.741092"
     inkscape:window-x="52"
     inkscape:window-y="28"
     inkscape:window-maximized="1"
     inkscape:current-layer="svg37">
    <inkscape:grid
       type="xygrid"
       id="grid864" />
  </sodipodi:namedview>
  <defs
     id="defs8">
    <linearGradient
       gradientTransform="matrix(.26455 0 0 .26457 -84.672 268.426)"
       xlink:href="#a"
       id="b"
       gradientUnits="userSpaceOnUse"
       x1="344"
       y1="64"
       x2="344"
       y2="104" />
    <linearGradient
       id="a">
      <stop
         offset="0"
         stop-color="#fb7c38"
         id="stop3" />
      <stop
         offset="1"
         stop-color="#fda463"
         id="stop5" />
    </linearGradient>
    <linearGradient
       inkscape:collect="always"
       xlink:href="#linearGradient1674"
       id="linearGradient962"
       gradientUnits="userSpaceOnUse"
       gradientTransform="matrix(0.02997233,0,0,0.02997147,-1.0585127,-2.5110674)"
       x1="512"
       y1="397.99393"
       x2="-1.0000001e-06"
       y2="125.99394" />
    <linearGradient
       inkscape:collect="always"
       id="linearGradient1674">
      <stop
         id="stop1670"
         offset="0"
         style="stop-color:#fb7c38;stop-opacity:1" />
      <stop
         id="stop1672"
         offset="1"
         style="stop-color:#9b33ae;stop-opacity:1" />
    </linearGradient>
  </defs>
  <path
     style="color:#000000;display:inline;overflow:visible;visibility:visible;fill:url(#linearGradient962);fill-opacity:1;fill-rule:nonzero;stroke:none;stroke-width:0.26458332;marker:none;enable-background:accumulate"
     d="m 3.1083393,1.322542 c -0.589235,0 -1.053309,0.013134 -1.434023,0.076998 -0.381069,0.063924 -0.69172197,0.1836106 -0.91983997,0.4113443 -0.228198,0.2278124 -0.348351,0.538864 -0.412377,0.9193237 -0.02279,0.1354333 -0.03743,0.2859569 -0.04909,0.4444174 -0.02106,0.28619 -0.02842,0.608488 -0.02842,0.98702 v 4.9051268 c 0,0.5881272 0.0136,1.0516518 0.07752,1.4324708 0.064,0.381292 0.183864,0.692339 0.411861,0.920873 0.228036,0.228576 0.53944297,0.348975 0.92087397,0.41238 0.380778,0.06329 0.844751,0.07625 1.434021,0.07338 h 3.2411455 3.2406299 c 0.5892643,0.0029 1.0537503,-0.01008 1.4345363,-0.07338 0.381432,-0.06341 0.69232,-0.183801 0.920359,-0.41238 0.227995,-0.228534 0.347856,-0.539578 0.411861,-0.920873 0.06393,-0.380826 0.07803,-0.8443455 0.07803,-1.4324708 V 4.1616454 c 0,-0.3785225 -0.0072,-0.7008347 -0.02842,-0.98702 C 12.395259,3.016157 12.380189,2.8656477 12.357397,2.730208 12.293374,2.3497477 12.173737,2.0386967 11.945536,1.8108843 11.717418,1.5831505 11.406252,1.4634641 11.025177,1.39954 10.646841,1.336072 10.241926,1.322542 9.5916725,1.322542 H 6.3500108 Z"
     id="path958"
     inkscape:export-xdpi="95.996666"
     inkscape:export-ydpi="95.996666"
     inkscape:connector-curvature="0" />
  <path
     style="display:inline;opacity:0.3;vector-effect:none;fill:#000000;fill-opacity:1;stroke:none;stroke-width:0.26458332;stroke-linecap:butt;stroke-linejoin:miter;stroke-miterlimit:4;stroke-dasharray:none;stroke-dashoffset:0;stroke-opacity:1;enable-background:new"
     d="m 2.8239753,1.3230588 c -0.522113,4.762e-4 -0.937898,0.013758 -1.277816,0.076481 -0.346427,0.063924 -0.62883797,0.1836105 -0.83621797,0.4113443 -0.207455,0.2278124 -0.316682,0.5388642 -0.374888,0.9193237 -0.02071,0.1354338 -0.03403,0.2859569 -0.04463,0.4444174 -0.01914,0.2861903 -0.02584,0.608488 -0.02584,0.98702 V 9.066772 c 0,0.5881272 0.01236,1.051651 0.07047,1.432471 0.05818,0.38129 0.167148,0.692339 0.374418,0.920873 0.207306,0.228576 0.49040197,0.348975 0.83715997,0.41238 0.346159,0.06329 0.767956,0.07625 1.303655,0.07338 h 0.06013 V 1.3230588 Z"
     id="rect1767-6"
     inkscape:connector-curvature="0"
     sodipodi:nodetypes="cccccssccccccc"
     inkscape:export-xdpi="95.996666"
     inkscape:export-ydpi="95.996666" />
</svg>
