<?xml version="1.0" encoding="UTF-8" standalone="no"?>
<svg
   xmlns:dc="http://purl.org/dc/elements/1.1/"
   xmlns:cc="http://creativecommons.org/ns#"
   xmlns:rdf="http://www.w3.org/1999/02/22-rdf-syntax-ns#"
   xmlns:svg="http://www.w3.org/2000/svg"
   xmlns="http://www.w3.org/2000/svg"
   xmlns:xlink="http://www.w3.org/1999/xlink"
   xmlns:sodipodi="http://sodipodi.sourceforge.net/DTD/sodipodi-0.dtd"
   xmlns:inkscape="http://www.inkscape.org/namespaces/inkscape"
   width="32"
   height="32"
   viewBox="0 0 8.467 8.467"
   version="1.1"
   id="svg35"
   sodipodi:docname="desktop.svg"
   inkscape:version="0.92.4 5da689c313, 2019-01-14">
  <metadata
     id="metadata39">
    <rdf:RDF>
      <cc:Work
         rdf:about="">
        <dc:format>image/svg+xml</dc:format>
        <dc:type
           rdf:resource="http://purl.org/dc/dcmitype/StillImage" />
      </cc:Work>
    </rdf:RDF>
  </metadata>
  <sodipodi:namedview
     pagecolor="#ffffff"
     bordercolor="#666666"
     borderopacity="1"
     objecttolerance="10"
     gridtolerance="10"
     guidetolerance="10"
     inkscape:pageopacity="0"
     inkscape:pageshadow="2"
     inkscape:window-width="1314"
     inkscape:window-height="740"
     id="namedview37"
     showgrid="true"
     inkscape:zoom="5.6568542"
     inkscape:cx="-1.1424822"
     inkscape:cy="15.297683"
     inkscape:window-x="52"
     inkscape:window-y="28"
     inkscape:window-maximized="1"
     inkscape:current-layer="svg35">
    <inkscape:grid
       type="xygrid"
       id="grid880" />
  </sodipodi:namedview>
  <defs
     id="defs8">
    <linearGradient
       xlink:href="#a"
       id="b"
       gradientUnits="userSpaceOnUse"
       gradientTransform="matrix(.5286 0 0 .52917 -179.98 163.65)"
       x1="346"
       y1="240"
       x2="346"
       y2="251" />
    <linearGradient
       id="a">
      <stop
         offset="0"
         stop-color="#fb7c38"
         id="stop3" />
      <stop
         offset="1"
         stop-color="#fda463"
         id="stop5" />
    </linearGradient>
    <linearGradient
       inkscape:collect="always"
       xlink:href="#linearGradient927"
       id="linearGradient969"
       x1="336"
       y1="136"
       x2="336"
       y2="160"
       gradientUnits="userSpaceOnUse"
       gradientTransform="rotate(90,335.99998,147.99998)" />
    <linearGradient
       inkscape:collect="always"
       id="linearGradient927">
      <stop
         style="stop-color:#ffffff;stop-opacity:1;"
         offset="0"
         id="stop923" />
      <stop
         id="stop933"
         offset="0.125"
         style="stop-color:#ffffff;stop-opacity:0.09803922" />
      <stop
         id="stop931"
         offset="0.92500001"
         style="stop-color:#ffffff;stop-opacity:0.09803922" />
      <stop
         style="stop-color:#ffffff;stop-opacity:0.49803922"
         offset="1"
         id="stop925" />
    </linearGradient>
    <clipPath
       clipPathUnits="userSpaceOnUse"
       id="clipPath959">
      <path
         style="color:#000000;display:inline;overflow:visible;visibility:visible;opacity:1;fill:#46a926;fill-opacity:1;fill-rule:nonzero;stroke:none;stroke-width:2;stroke-miterlimit:4;stroke-dasharray:none;stroke-opacity:1;marker:none;enable-background:accumulate"
         d="m 330.1929,133.99999 c -5.61538,0 -6.21958,0.57678 -6.19206,6.20352 v 7.79648 7.79648 c -0.0276,5.62673 0.57668,6.20351 6.19206,6.20351 h 11.615 c 5.6154,0 6.19208,-0.5767 6.19208,-6.20351 v -7.79648 -7.79648 c 0,-5.6268 -0.5767,-6.20352 -6.19208,-6.20352 z"
         id="path961"
         inkscape:connector-curvature="0"
         sodipodi:nodetypes="scccssscsss" />
    </clipPath>
    <linearGradient
       inkscape:collect="always"
       xlink:href="#linearGradient1674"
       id="linearGradient924"
       gradientUnits="userSpaceOnUse"
       gradientTransform="matrix(0.01907405,0,0,0.01907351,-0.61347185,-1.7539497)"
       x1="459.03448"
       y1="419.23337"
       x2="35.310345"
       y2="207.36522" />
    <linearGradient
       inkscape:collect="always"
       id="linearGradient1674">
      <stop
         id="stop1670"
         offset="0"
         style="stop-color:#fb7c38;stop-opacity:1" />
      <stop
         id="stop1672"
         offset="1"
         style="stop-color:#9b33ae;stop-opacity:1" />
    </linearGradient>
  </defs>
  <path
     style="color:#000000;display:inline;overflow:visible;visibility:visible;fill:url(#linearGradient924);fill-opacity:1;fill-rule:nonzero;stroke:none;stroke-width:0.26459372;marker:none;enable-background:accumulate"
     d="M 2.0382155,1.058441 C 1.663945,1.056591 1.3707272,1.064791 1.132294,1.104435 0.89372295,1.14409 0.703877,1.2183188 0.56589655,1.3566246 c -0.1379803,0.1383085 -0.2121512,0.3283926 -0.2521896,0.5669133 -0.016193,0.096444 -0.024528,0.2094472 -0.032042,0.3255747 -0.01106,0.1710704 -0.017066,0.357744 -0.017066,0.5803494 v 3.0733173 c 0,0.3737149 0.00905,0.6663714 0.049095,0.9043735 0.040052,0.2380021 0.1141696,0.4275756 0.2521896,0.5653628 0.13802015,0.1377871 0.3274983,0.2116855 0.56587865,0.2516736 0.2383832,0.039988 0.5319843,0.049095 0.9064402,0.049095 h 2.0630187 2.0630058 c 0.374461,0 0.6680569,-0.0091 0.90644,-0.049095 C 7.3090472,7.5842012 7.4985229,7.5103027 7.6365456,7.3725156 7.7745657,7.2347284 7.8486837,7.0451549 7.8887353,6.8071528 7.9287873,6.5691507 7.9378303,6.2764942 7.9378303,5.9027793 v -3.073317 c 0,-0.2226081 -0.00651,-0.4092763 -0.017569,-0.5803494 C 7.9127467,2.132988 7.9049417,2.01998 7.8887378,1.9235382 7.8486996,1.6850202 7.7745287,1.4949308 7.6365482,1.356625 7.4985678,1.2183218 7.3087219,1.14409 7.0701508,1.1044354 6.8315826,1.0647781 6.538291,1.0566101 6.163711,1.0584411 H 4.1012211 Z"
     id="path922"
     inkscape:export-xdpi="95.996666"
     inkscape:export-ydpi="95.996666"
     inkscape:connector-curvature="0" />
  <path
     style="display:inline;opacity:0.3;vector-effect:none;fill:#000000;fill-opacity:1;stroke:none;stroke-width:0.26459375;stroke-linecap:butt;stroke-linejoin:miter;stroke-miterlimit:4;stroke-dasharray:none;stroke-dashoffset:0;stroke-opacity:1;enable-background:new"
     d="M 1.8173563,1.058441 C 1.5005952,1.0587056 1.2483474,1.067041 1.0421205,1.106245 0.83194825,1.146199 0.6606133,1.2210073 0.53479625,1.3633481 c -0.1258567,0.1423912 -0.1921242,0.3368067 -0.2274395,0.5746077 -0.012568,0.084652 -0.020638,0.1787331 -0.027073,0.2777759 -0.011589,0.1788786 -0.01569,0.3803244 -0.01569,0.6169215 v 3.0658662 c 0,0.3676001 0.00749,0.6573171 0.042748,0.895343 0.035307,0.2383195 0.1014109,0.4327351 0.2271564,0.575576 0.12577465,0.1428674 0.2975225,0.2181205 0.50789565,0.2577514 0.2100107,0.039559 0.4659074,0.047661 0.7909106,0.045865 l 0.1511491,1.64e-4 v -6.614778 z"
     id="rect1767-6-7"
     inkscape:connector-curvature="0"
     sodipodi:nodetypes="cccccssccccccc"
     inkscape:export-xdpi="95.996666"
     inkscape:export-ydpi="95.996666" />
  <path
     transform="matrix(0,-0.26459375,0.26459375,0,-35.058654,93.269352)"
     sodipodi:nodetypes="scccssscsss"
     inkscape:connector-curvature="0"
     id="path939"
     d="m 330.1929,133.99999 c -5.61538,0 -6.21958,0.57678 -6.19206,6.20352 v 7.79648 7.79648 c -0.0276,5.62673 0.57668,6.20351 6.19206,6.20351 h 11.615 c 5.6154,0 6.19208,-0.5767 6.19208,-6.20351 v -7.79648 -7.79648 c 0,-5.6268 -0.5767,-6.20352 -6.19208,-6.20352 z"
     style="color:#000000;display:inline;overflow:visible;visibility:visible;opacity:0.3;fill:none;fill-opacity:1;fill-rule:nonzero;stroke:url(#linearGradient969);stroke-width:2;stroke-miterlimit:4;stroke-dasharray:none;stroke-opacity:1;marker:none;enable-background:accumulate"
     clip-path="url(#clipPath959)"
     inkscape:export-xdpi="95.996666"
     inkscape:export-ydpi="95.996666" />
</svg>
