<svg xmlns="http://www.w3.org/2000/svg" xmlns:xlink="http://www.w3.org/1999/xlink" width="32" height="32" viewBox="0 0 8.467 8.467">
    <defs>
        <linearGradient xlink:href="#a" id="b" gradientUnits="userSpaceOnUse" gradientTransform="matrix(.5286 0 0 .52917 -179.98 163.65)" x1="346" y1="240" x2="346" y2="251"/>
        <linearGradient id="a">
            <stop offset="0" stop-color="#fb7c38"/>
            <stop offset="1" stop-color="#fda463"/>
        </linearGradient>
    </defs>
    <g font-weight="400" color="#000" font-family="sans-serif">
        <path d="M1.859.794c-.404 0-.714.015-.97.067-.256.052-.47.15-.619.322-.148.172-.209.389-.238.625-.029.235-.03.505-.032.836v3.972c.005.66-.022 1.102.223 1.442.126.176.319.284.545.34.223.054.488.069.827.069h5.021c.404 0 .715-.015.97-.068.256-.052.47-.149.618-.322.148-.172.208-.389.236-.625.027-.236.027-.507.027-.837v-3.44c0-.33 0-.601-.027-.837-.028-.237-.088-.453-.236-.626s-.362-.27-.618-.322c-.255-.052-.566-.067-.97-.067H3.813l-.566-.53H1.991z" style="line-height:normal;font-variant-ligatures:none;font-variant-position:normal;font-variant-caps:normal;font-variant-numeric:normal;font-variant-alternates:normal;font-feature-settings:normal;text-indent:0;text-align:start;text-decoration-line:none;text-decoration-style:solid;text-decoration-color:#000;text-transform:none;text-orientation:mixed;white-space:normal;shape-padding:0;isolation:auto;mix-blend-mode:normal;solid-color:#000;solid-opacity:1;marker:none" overflow="visible" opacity=".1"/>
        <path d="M1.859.661c-.4 0-.704.016-.943.065-.24.049-.422.135-.546.28-.124.143-.18.33-.207.553-.027.224-.029.49-.03.821v3.971c.004.662-.01 1.077.197 1.366.104.145.264.237.47.287.204.05.46.066.795.066h5.021c.4 0 .704-.016.944-.065.239-.049.42-.135.544-.279.124-.144.178-.33.205-.554.026-.224.025-.491.025-.822V2.91c0-.33 0-.598-.025-.821-.027-.224-.081-.41-.205-.555-.123-.144-.305-.23-.544-.279-.24-.049-.543-.064-.944-.064H3.761L3.195.66H1.859z" style="line-height:normal;font-variant-ligatures:none;font-variant-position:normal;font-variant-caps:normal;font-variant-numeric:normal;font-variant-alternates:normal;font-feature-settings:normal;text-indent:0;text-align:start;text-decoration-line:none;text-decoration-style:solid;text-decoration-color:#000;text-transform:none;text-orientation:mixed;white-space:normal;shape-padding:0;isolation:auto;mix-blend-mode:normal;solid-color:#000;solid-opacity:1;marker:none" overflow="visible" fill="#f34f17"/>
        <path d="M6.608 290.385c1.585 0 1.585.265 1.594 1.588v2.91c-.009 1.323-.009 1.588-1.33 1.588H1.85c-1.586 0-1.586-.265-1.586-1.588v-2.38c0-1.324 0-1.588 1.586-1.588H3.7l.567-.53h2.34z" style="line-height:normal;font-variant-ligatures:none;font-variant-position:normal;font-variant-caps:normal;font-variant-numeric:normal;font-variant-alternates:normal;font-feature-settings:normal;text-indent:0;text-align:start;text-decoration-line:none;text-decoration-style:solid;text-decoration-color:#000;text-transform:none;white-space:normal;shape-padding:0;isolation:auto;mix-blend-mode:normal;solid-color:#000;solid-opacity:1;marker:none" overflow="visible" transform="translate(0 -288.533)" fill="url(#b)"/>
        <path d="M4.267 1.852l-.567.53H1.85c-1.586 0-1.586.264-1.586 1.587v.264c0-1.323 0-1.587 1.586-1.587H3.7l.567-.53h2.34c1.586 0 1.586.265 1.595 1.588V3.44c-.009-1.323-.009-1.588-1.594-1.588z" style="line-height:normal;font-variant-ligatures:none;font-variant-position:normal;font-variant-caps:normal;font-variant-numeric:normal;font-variant-alternates:normal;font-feature-settings:normal;text-indent:0;text-align:start;text-decoration-line:none;text-decoration-style:solid;text-decoration-color:#000;text-transform:none;white-space:normal;shape-padding:0;isolation:auto;mix-blend-mode:normal;solid-color:#000;solid-opacity:1;marker:none" overflow="visible" opacity=".3" fill="#fff"/>
        <path style="line-height:normal;font-variant-ligatures:none;font-variant-position:normal;font-variant-caps:normal;font-variant-numeric:normal;font-variant-alternates:normal;font-feature-settings:normal;text-indent:0;text-align:start;text-decoration-line:none;text-decoration-style:solid;text-decoration-color:#000;text-transform:none;text-orientation:mixed;white-space:normal;shape-padding:0;isolation:auto;mix-blend-mode:normal;solid-color:#000;solid-opacity:1;marker:none" d="M1.859.661c-.4 0-.704.016-.943.065-.24.049-.422.135-.546.28-.124.143-.18.33-.207.553-.027.224-.029.49-.03.821v3.971c.004.662-.01 1.077.197 1.366.104.145.264.237.47.287.204.05.46.066.795.066h5.021c.4 0 .704-.016.944-.065.239-.049.42-.135.544-.279.124-.144.178-.33.205-.554.026-.224.025-.491.025-.822V2.91c0-.33 0-.598-.025-.821-.027-.224-.081-.41-.205-.555-.123-.144-.305-.23-.544-.279-.24-.049-.543-.064-.944-.064H3.761L3.195.66H1.859z" overflow="visible" opacity=".5" fill="none" stroke="#7a270a" stroke-width=".265"/>
        <path style="line-height:normal;font-variant-ligatures:none;font-variant-position:normal;font-variant-caps:normal;font-variant-numeric:normal;font-variant-alternates:normal;font-feature-settings:normal;text-indent:0;text-align:start;text-decoration-line:none;text-decoration-style:solid;text-decoration-color:#000;text-transform:none;white-space:normal;shape-padding:0;isolation:auto;mix-blend-mode:normal;solid-color:#000;solid-opacity:1;marker:none" d="M4.267 1.588l-.567.529H1.85C.264 2.117.264 2.38.264 3.704v.265c0-1.323 0-1.588 1.586-1.588H3.7l.567-.529h2.34c1.586 0 1.586.265 1.595 1.588v-.265c-.009-1.323-.009-1.587-1.594-1.587z" overflow="visible" opacity=".2" fill="#491706"/>
        <path d="M1.859.794C.273.794.273 1.058.264 2.38v.265c.01-1.323.01-1.588 1.595-1.588h1.284l.566.53h2.907c1.586 0 1.586.264 1.586 1.587V2.91c0-1.322 0-1.587-1.586-1.587H3.71l-.566-.53H1.859z" style="line-height:normal;font-variant-ligatures:none;font-variant-position:normal;font-variant-caps:normal;font-variant-numeric:normal;font-variant-alternates:normal;font-feature-settings:normal;text-indent:0;text-align:start;text-decoration-line:none;text-decoration-style:solid;text-decoration-color:#000;text-transform:none;white-space:normal;shape-padding:0;isolation:auto;mix-blend-mode:normal;solid-color:#000;solid-opacity:1;marker:none" overflow="visible" opacity=".4" fill="#fec589"/>
        <path d="M8.193 5.556L5.815 7.938h1.057c1.321 0 1.321-.265 1.33-1.588z" style="line-height:normal;font-variant-ligatures:none;font-variant-position:normal;font-variant-caps:normal;font-variant-numeric:normal;font-variant-alternates:normal;font-feature-settings:normal;text-indent:0;text-align:start;text-decoration-line:none;text-decoration-style:solid;text-decoration-color:#000;text-transform:none;white-space:normal;shape-padding:0;isolation:auto;mix-blend-mode:normal;solid-color:#000;solid-opacity:1;marker:none" overflow="visible" opacity=".1" fill="#fff"/>
    </g>
    <g
     transform="scale(1 1) translate(2.3 3)"
     id="g8765">
              <g fill="#f5f5f5" fill-opacity=".557">
        <path d="M0 0h4.232v4.233H0z" fill="none"/>
        <path d="M.53 0A.528.528 0 0 0 0 .53v3.174a.528.528 0 1 0 1.059 0V2.646h2.116v1.058a.528.528 0 1 0 1.058 0V.53A.528.528 0 0 0 3.704 0zm.397.53h.264c.074 0 .133.058.133.131v.397h.396c.074 0 .133.06.133.133v.264a.132.132 0 0 1-.133.132h-.396v.397a.132.132 0 0 1-.133.133H.927a.132.132 0 0 1-.132-.133v-.397H.398a.132.132 0 0 1-.133-.132v-.264c0-.074.06-.133.133-.133h.397V.661A.13.13 0 0 1 .927.53zm2.116 0h.264c.074 0 .133.058.133.131v.265a.132.132 0 0 1-.133.132h-.264a.132.132 0 0 1-.132-.132V.661c0-.073.059-.132.132-.132zm-.53.528h.265c.074 0 .133.06.133.133v.264a.132.132 0 0 1-.133.132h-.264a.132.132 0 0 1-.132-.132v-.264c0-.074.059-.133.132-.133zm1.059 0h.265c.073 0 .132.06.132.133v.264a.132.132 0 0 1-.132.132h-.265a.132.132 0 0 1-.132-.132v-.264c0-.074.059-.133.132-.133zm-.529.53h.264c.074 0 .133.059.133.132v.264a.132.132 0 0 1-.133.133h-.264a.132.132 0 0 1-.132-.133V1.72c0-.073.059-.133.132-.133z" fill-opacity="1"/>
    </g>

      </g>
</svg>
